HIERARCHY
ROOT hip
{
	OFFSET 0.000000 0.000000 0.000000
	CHANNELS 6 Xposition Yposition Zposition Xrotation Zrotation Yrotation 
	JOINT abdomen
	{
		OFFSET 0.000000 3.422050 0.000000
		CHANNELS 3 Xrotation Zrotation Yrotation 
		JOINT chest
		{
			OFFSET 0.000000 8.486693 -0.684411
			CHANNELS 3 Xrotation Zrotation Yrotation 
			JOINT neck
			{
				OFFSET 0.000000 10.266162 -0.273764
				CHANNELS 3 Xrotation Zrotation Yrotation 
				JOINT head
				{
					OFFSET 0.000000 3.148285 0.000000
					CHANNELS 3 Xrotation Zrotation Yrotation 
					End Site
					{
						OFFSET 0.000000 3.148289 0.000000
					}
				}
			}
			JOINT lCollar
			{
				OFFSET 3.422053 6.707223 -0.821293
				CHANNELS 3 Yrotation Zrotation Xrotation 
				JOINT lShldr
				{
					OFFSET 3.285171 0.000000 0.000000
					CHANNELS 3 Zrotation Yrotation Xrotation 
					JOINT lForeArm
					{
						OFFSET 10.129278 0.000000 0.000000
						CHANNELS 3 Yrotation Zrotation Xrotation 
						JOINT lHand
						{
							OFFSET 8.486692 0.000000 0.000000
							CHANNELS 3 Zrotation Yrotation Xrotation 
							End Site
							{
								OFFSET 4.106464 0.000000 0.000000
							}
						}
					}
				}
			}
			JOINT rCollar
			{
				OFFSET -3.558935 6.707223 -0.821293
				CHANNELS 3 Yrotation Zrotation Xrotation 
				JOINT rShldr
				{
					OFFSET -3.148289 0.000000 0.000000
					CHANNELS 3 Zrotation Yrotation Xrotation 
					JOINT rForeArm
					{
						OFFSET -10.266159 0.000000 0.000000
						CHANNELS 3 Yrotation Zrotation Xrotation 
						JOINT rHand
						{
							OFFSET -8.349810 0.000000 0.000000
							CHANNELS 3 Zrotation Yrotation Xrotation 
							End Site
							{
								OFFSET -4.106464 0.000000 0.000000
							}
						}
					}
				}
			}
		}
	}
	JOINT lThigh
	{
		OFFSET 5.338403 -1.642589 1.368821
		CHANNELS 3 Xrotation Zrotation Yrotation 
		JOINT lShin
		{
			OFFSET -2.053232 -20.121670 0.000000
			CHANNELS 3 Xrotation Zrotation Yrotation 
			JOINT lFoot
			{
				OFFSET 0.000000 -19.300380 -1.231939
				CHANNELS 3 Xrotation Yrotation Zrotation 
				End Site
				{
					OFFSET 0.000000 -2.463878 4.653993
				}
			}
		}
	}
	JOINT rThigh
	{
		OFFSET -5.338403 -1.642589 1.368821
		CHANNELS 3 Xrotation Zrotation Yrotation 
		JOINT rShin
		{
			OFFSET 2.053232 -20.121670 0.000000
			CHANNELS 3 Xrotation Zrotation Yrotation 
			JOINT rFoot
			{
				OFFSET 0.000000 -19.300380 -1.231939
				CHANNELS 3 Xrotation Yrotation Zrotation 
				End Site
				{
					OFFSET 0.000000 -2.463878 4.653993
				}
			}
		}
	}
}
MOTION
Frames: 18
Frame Time: 0.099977
19.995884 4.831345 2.099199 -86.607872 0.000000 0.000000 17.015146 0.000000 0.000000 10.388855 -0.118385 -0.639409 -15.603480 0.000000 0.000000 -14.855493 0.000000 0.000000 7.271857 11.049514 -2.505850 -57.605160 22.477293 4.849636 -44.457546 6.309625 32.473061 -26.079031 -25.926786 18.141827 -12.997274 -36.110992 17.874155 74.925270 -31.132553 1.005664 74.284271 -0.491205 33.978649 25.272408 30.277597 16.808380 -20.048454 29.191105 -36.983391 31.978796 -6.828802 -3.328990 -4.909732 28.263874 10.237613 -65.880219 -43.220440 27.835526 105.074165 3.036519 0.486689 67.242851 28.241003 -44.616585 
19.995884 4.831345 2.026710 -85.211655 0.000000 0.000000 15.486453 0.000000 0.000000 11.520164 -0.118383 -0.639441 -15.137131 0.000000 0.000000 -14.473451 0.000000 0.000000 6.983667 10.359988 -2.934802 -57.104656 22.360119 4.968399 -43.450855 6.310060 32.383080 -25.075195 -26.800407 17.812443 -13.309278 -34.806171 17.604643 74.175232 -30.785439 1.286180 73.595818 -0.802226 33.983162 24.145695 30.846121 16.458035 -21.247404 29.075258 -37.616596 31.575672 -6.710243 -3.255170 -4.527250 28.997654 10.020689 -67.316170 -43.192387 27.817108 105.074165 3.036519 0.486689 67.242851 28.241003 -44.616585 
19.995884 4.831345 1.954221 -83.813164 0.000000 0.000000 13.954747 0.000000 0.000000 12.652688 -0.118380 -0.639473 -14.670478 0.000000 0.000000 -14.091248 0.000000 0.000000 6.690664 9.672151 -3.366643 -56.604782 22.241983 5.085977 -42.443310 6.308918 32.293015 -24.056456 -27.669836 17.462763 -13.609567 -33.498241 17.347408 73.429558 -30.435066 1.560514 72.906967 -1.113433 33.983932 23.006935 31.409206 16.092155 -22.444521 28.947748 -38.246727 31.172749 -6.591153 -3.182199 -4.138593 29.730530 9.796438 -68.754021 -43.164631 27.797712 105.074165 3.036519 0.486689 67.242851 28.241003 -44.616585 
19.995884 4.831345 1.881732 -82.412766 0.000000 0.000000 12.420559 0.000000 0.000000 13.786216 -0.118377 -0.639506 -14.203537 0.000000 0.000000 -13.708885 0.000000 0.000000 6.392835 8.986144 -3.801427 -56.105499 22.122879 5.202354 -41.435097 6.306202 32.202942 -23.022291 -28.534504 17.092287 -13.898871 -32.187630 17.101751 72.688210 -30.081522 1.828678 72.217789 -1.424744 33.980961 21.856018 31.966413 15.710589 -23.639338 28.808653 -38.873344 30.770027 -6.471543 -3.110083 -3.743544 30.462385 9.564653 -70.193344 -43.137196 27.777349 105.074165 3.036519 0.486689 67.242851 28.241003 -44.616585 
19.995884 4.831345 1.809242 -81.010902 0.000000 0.000000 10.884440 0.000000 0.000000 14.920521 -0.118372 -0.639538 -13.736325 0.000000 0.000000 -13.326375 0.000000 0.000000 6.090164 8.302104 -4.239203 -55.606831 22.002827 5.317526 -40.426338 6.301910 32.112873 -21.972193 -29.393816 16.700529 -14.177853 -30.874760 16.867012 71.951180 -29.724913 2.090673 71.528267 -1.736092 33.974232 20.692865 32.517342 15.313210 -24.831415 28.658077 -39.496029 30.367506 -6.351421 -3.038823 -3.341874 31.193071 9.325114 -71.633652 -43.110130 27.756035 105.074165 3.036519 0.486689 67.242851 28.241003 -44.616585 
19.995884 4.831345 1.736753 -79.608009 0.000000 0.000000 9.346937 0.000000 0.000000 16.055382 -0.118368 -0.639570 -13.268856 0.000000 0.000000 -12.943722 0.000000 0.000000 5.782642 7.620177 -4.680024 -55.108807 21.881836 5.431480 -39.417217 6.296036 32.022858 -20.905630 -30.247166 16.286974 -14.447133 -29.560051 16.642586 71.218491 -29.365339 2.346502 70.838470 -2.047405 33.963768 19.517410 33.061577 14.899906 -26.020290 28.496120 -40.114349 29.965204 -6.230796 -2.968426 -2.933353 31.922482 9.077606 -73.074478 -43.083412 27.733772 105.074165 3.036519 0.486689 67.242851 28.241003 -44.616585 
19.995884 4.831345 1.664264 -78.204453 0.000000 0.000000 7.808602 0.000000 0.000000 17.190577 -0.118362 -0.639602 -12.801144 0.000000 0.000000 -12.560935 0.000000 0.000000 5.470252 6.940495 -5.123937 -54.611443 21.759932 5.544206 -38.407887 6.288589 31.932949 -19.822083 -31.093948 15.851131 -14.707275 -28.243931 16.427919 70.490120 -29.002913 2.596193 70.148338 -2.358611 33.949532 18.329597 33.598690 14.470584 -27.205542 28.322903 -40.727909 29.563131 -6.109679 -2.898897 -2.517735 32.650452 8.821890 -74.515442 -43.057125 27.710611 105.074165 3.036519 0.486689 67.242851 28.241003 -44.616585 
19.995884 4.831345 1.591775 -76.800713 0.000000 0.000000 6.269990 0.000000 0.000000 18.325884 -0.118356 -0.639634 -12.333201 0.000000 0.000000 -12.178027 0.000000 0.000000 5.152982 6.263203 -5.570990 -54.114750 21.637119 5.655695 -37.398510 6.279567 31.843180 -18.721018 -31.933529 15.392488 -14.958815 -26.926790 16.222486 69.766090 -28.637747 2.839748 69.457954 -2.669635 33.931549 17.129389 34.128273 14.025167 -28.386726 28.138557 -41.336285 29.161287 -5.988078 -2.830238 -2.094768 33.376881 8.557731 -75.956017 -43.031254 27.686550 105.074165 3.036519 0.486689 67.242851 28.241003 -44.616585 
19.995884 4.831345 1.519286 -75.397179 0.000000 0.000000 4.731655 0.000000 0.000000 19.461079 -0.118349 -0.639666 -11.865050 0.000000 0.000000 -11.795004 0.000000 0.000000 4.830822 5.588443 -6.021232 -53.618744 21.513414 5.765939 -36.389229 6.268975 31.753576 -17.601919 -32.765285 14.910554 -15.202254 -25.609070 16.025824 69.046356 -28.269939 3.077200 68.767319 -2.980409 33.909809 15.916773 34.649887 13.563605 -29.563456 27.943247 -41.939117 28.759689 -5.866004 -2.762454 -1.664189 34.101582 8.284869 -77.395767 -43.005836 27.661625 105.074165 3.036519 0.486689 67.242851 28.241003 -44.616585 
19.995884 4.831345 1.446797 -73.994270 0.000000 0.000000 3.194152 0.000000 0.000000 20.595940 -0.118342 -0.639697 -11.396703 0.000000 0.000000 -11.411870 0.000000 0.000000 4.503756 4.916349 -6.474704 -53.123440 21.388836 5.874932 -35.380238 6.256818 31.664217 -16.464254 -33.588547 14.404823 -15.438036 -24.291159 15.837462 68.330894 -27.899582 3.308557 68.076439 -3.290855 33.884312 14.691765 35.163128 13.085873 -30.735319 27.737116 -42.536015 28.358332 -5.743462 -2.695549 -1.225728 34.824432 8.003046 -78.834267 -42.980915 27.635866 105.074165 3.036519 0.486689 67.242851 28.241003 -44.616585 
19.995884 4.831345 1.374308 -72.592422 0.000000 0.000000 1.658032 0.000000 0.000000 21.730242 -0.118334 -0.639729 -10.928176 0.000000 0.000000 -11.028639 0.000000 0.000000 4.171774 4.247067 -6.931453 -52.628853 21.263391 5.982658 -34.371670 6.243104 31.575111 -15.307528 -34.402687 13.874821 -15.666592 -22.973455 15.657000 67.619736 -27.526800 3.533848 67.385368 -3.600903 33.855076 13.454397 35.667583 12.591974 -31.901945 27.520367 -43.126644 27.957239 -5.620468 -2.629527 -0.779102 35.545303 7.711996 -80.271019 -42.956478 27.609280 105.074165 3.036519 0.486689 67.242851 28.241003 -44.616585 
19.995884 4.831345 1.301818 -71.192032 0.000000 0.000000 0.123846 0.000000 0.000000 22.863768 -0.118326 -0.639760 -10.459483 0.000000 0.000000 -10.645319 0.000000 0.000000 3.834865 3.580734 -7.391520 -52.135006 21.137108 6.089117 -33.363697 6.227845 31.486319 -14.131227 -35.207027 13.320065 -15.888333 -21.656382 15.484056 66.912819 -27.151680 3.753099 66.694077 -3.910486 33.822083 12.204728 36.162834 12.081929 -33.062958 27.293159 -43.710644 27.556404 -5.497028 -2.564391 -0.324019 36.264019 7.411431 -81.705605 -42.932560 27.581909 105.074165 3.036519 0.486689 67.242851 28.241003 -44.616585 
19.995884 4.831345 1.229329 -69.793526 0.000000 0.000000 -1.407863 0.000000 0.000000 23.996298 -0.118316 -0.639791 -9.990643 0.000000 0.000000 -10.261915 0.000000 0.000000 3.493019 2.917492 -7.854948 -51.641918 21.009993 6.194300 -32.356480 6.211045 31.397879 -12.934864 -36.000900 12.740095 -16.103617 -20.340319 15.318271 66.210114 -26.774328 3.966340 66.002640 -4.219525 33.785358 10.942849 36.648468 11.555800 -34.218014 27.055696 -44.287701 27.155848 -5.373153 -2.500146 0.139823 36.980438 7.101059 -83.137589 -42.909195 27.553785 105.074165 3.036519 0.486689 67.242851 28.241003 -44.616585 
19.995884 4.831345 1.156840 -68.397301 0.000000 0.000000 -2.936553 0.000000 0.000000 25.127604 -0.118307 -0.639822 -9.521665 0.000000 0.000000 -9.878439 0.000000 0.000000 3.146225 2.257479 -8.321774 -51.149590 20.882065 6.298195 -31.350151 6.192719 31.309807 -11.717967 -36.783611 12.134470 -16.312809 -19.025660 15.159303 65.511642 -26.394867 4.173604 65.311035 -4.527956 33.744896 9.668877 37.124104 11.013674 -35.366776 26.808197 -44.857510 26.755566 -5.248853 -2.436794 0.612741 37.694405 6.780578 -84.566521 -42.886395 27.524935 105.074165 3.036519 0.486689 67.242851 28.241003 -44.616585 
19.995884 4.831345 1.084351 -67.003799 0.000000 0.000000 -4.461693 0.000000 0.000000 26.257477 -0.118296 -0.639852 -9.052570 0.000000 0.000000 -9.494901 0.000000 0.000000 2.794475 1.600835 -8.792039 -50.658047 20.753338 6.400801 -30.344906 6.172877 31.222176 -10.480090 -37.554485 11.502769 -16.516224 -17.712782 15.006841 64.817360 -26.013384 4.374917 64.619293 -4.835697 33.700699 8.382948 37.589306 10.455659 -36.508934 26.550879 -45.419785 26.355572 -5.124136 -2.374338 1.095060 38.405766 6.449667 -85.991951 -42.864162 27.495386 105.074165 3.036519 0.486689 67.242851 28.241003 -44.616585 
19.995884 4.831345 1.152310 -68.310120 0.000000 0.000000 -3.031984 0.000000 0.000000 25.198267 -0.118306 -0.639824 -8.583374 0.000000 0.000000 -9.111304 0.000000 0.000000 3.124386 2.216339 -8.351064 -51.118847 20.874044 6.304646 -31.287300 6.191523 31.304325 -11.641216 -36.832138 12.095755 -16.325689 -18.943544 15.149585 65.468140 -26.371086 4.186357 65.267799 -4.547207 33.742237 9.588855 37.153492 10.979263 -35.438362 26.792404 -44.892883 26.730556 -5.241070 -2.432864 0.642607 37.738941 6.760203 -84.655708 -42.884975 27.523106 105.074165 3.036519 0.486689 67.242851 28.241003 -44.616585 
19.995884 4.831345 1.220268 -69.618851 0.000000 0.000000 -1.599125 0.000000 0.000000 24.137785 -0.118315 -0.639795 -8.114093 0.000000 0.000000 -8.727662 0.000000 0.000000 3.449941 2.834811 -7.913114 -51.580334 20.994045 6.207355 -32.230625 6.208836 31.386837 -12.783883 -36.099361 12.665803 -16.130095 -20.175901 15.298031 66.122589 -26.727015 3.992573 65.916191 -4.258114 33.780502 10.784264 36.708485 11.488910 -34.361965 27.025307 -44.359337 27.105795 -5.357639 -2.492178 0.198435 37.069828 7.061559 -83.316368 -42.906307 27.550209 105.074165 3.036519 0.486689 67.242851 28.241003 -44.616585 
19.995884 4.831345 1.288227 -70.929642 0.000000 0.000000 -0.163554 0.000000 0.000000 23.076199 -0.118324 -0.639766 -7.644740 0.000000 0.000000 -8.343977 0.000000 0.000000 3.771146 3.456137 -7.478157 -52.042496 21.113340 6.108937 -33.174782 6.224812 31.469707 -13.908449 -35.356693 13.213252 -15.929178 -21.409531 15.452439 66.780731 -27.081093 3.793536 66.564453 -3.968475 33.815483 11.969053 36.254631 11.984504 -33.279995 27.249403 -43.819378 27.481277 -5.473835 -2.552278 -0.237725 36.398529 7.353993 -81.974312 -42.928139 27.576689 105.074165 3.036519 0.486689 67.242851 28.241003 -44.616585 
